<svg width="57" height="46" viewBox="0 0 57 46" fill="none" xmlns="http://www.w3.org/2000/svg">
<path d="M21.5 13.4375C17.0572 13.4375 13.4375 17.0572 13.4375 21.5C13.4375 25.9428 17.0572 29.5625 21.5 29.5625C25.9428 29.5625 29.5625 25.9428 29.5625 21.5C29.5625 17.0572 25.9428 13.4375 21.5 13.4375ZM42.1937 20.1982L34.2404 16.2258L37.0539 7.79375C37.4318 6.65156 36.3484 5.56816 35.2146 5.95449L26.7826 8.76797L22.8018 0.80625C22.2643 -0.26875 20.7357 -0.26875 20.1982 0.80625L16.2258 8.75957L7.78535 5.94609C6.64316 5.56816 5.55977 6.65156 5.94609 7.78535L8.75957 16.2174L0.80625 20.1982C-0.26875 20.7357 -0.26875 22.2643 0.80625 22.8018L8.75957 26.7742L5.94609 35.2146C5.56816 36.3568 6.65156 37.4402 7.78535 37.0539L16.2174 34.2404L20.1898 42.1937C20.7273 43.2687 22.2559 43.2687 22.7934 42.1937L26.7658 34.2404L35.1979 37.0539C36.34 37.4318 37.4234 36.3484 37.0371 35.2146L34.2236 26.7826L42.177 22.8102C43.2687 22.2643 43.2687 20.7357 42.1937 20.1982ZM29.1006 29.1006C24.9098 33.2914 18.0902 33.2914 13.8994 29.1006C9.70859 24.9098 9.70859 18.0902 13.8994 13.8994C18.0902 9.70859 24.9098 9.70859 29.1006 13.8994C33.2914 18.0902 33.2914 24.9098 29.1006 29.1006Z" fill="#F7DB6D"/>
<path d="M23 38.9145V41.75C23 44.0941 28.7109 46 35.75 46C42.7891 46 48.5 44.0941 48.5 41.75V38.9145C45.7574 40.8469 40.7437 41.75 35.75 41.75C30.7563 41.75 25.7426 40.8469 23 38.9145ZM44.25 20.5C51.2891 20.5 57 18.5941 57 16.25C57 13.9059 51.2891 12 44.25 12C37.2109 12 31.5 13.9059 31.5 16.25C31.5 18.5941 37.2109 20.5 44.25 20.5ZM23 31.9484V35.375C23 37.7191 28.7109 39.625 35.75 39.625C42.7891 39.625 48.5 37.7191 48.5 35.375V31.9484C45.7574 34.2062 40.7371 35.375 35.75 35.375C30.7629 35.375 25.7426 34.2062 23 31.9484ZM50.625 32.6789C54.4301 31.9418 57 30.5738 57 29V26.1645C55.4594 27.2535 53.1949 27.9973 50.625 28.4555V32.6789ZM35.75 22.625C28.7109 22.625 23 25.0023 23 27.9375C23 30.8727 28.7109 33.25 35.75 33.25C42.7891 33.25 48.5 30.8727 48.5 27.9375C48.5 25.0023 42.7891 22.625 35.75 22.625ZM50.3129 26.3637C54.2973 25.6465 57 24.2387 57 22.625V19.7895C54.6426 21.4563 50.5918 22.3527 46.3285 22.5652C48.2875 23.5148 49.7285 24.7898 50.3129 26.3637Z" fill="#4C4C4C"/>
</svg>
