<svg width="52" height="55" viewBox="0 0 52 55" fill="none" xmlns="http://www.w3.org/2000/svg">
<path d="M21.5 13.4375C17.0572 13.4375 13.4375 17.0572 13.4375 21.5C13.4375 25.9428 17.0572 29.5625 21.5 29.5625C25.9428 29.5625 29.5625 25.9428 29.5625 21.5C29.5625 17.0572 25.9428 13.4375 21.5 13.4375ZM42.1937 20.1982L34.2404 16.2258L37.0539 7.79375C37.4318 6.65156 36.3484 5.56816 35.2146 5.95449L26.7826 8.76797L22.8018 0.80625C22.2643 -0.26875 20.7357 -0.26875 20.1982 0.80625L16.2258 8.75957L7.78535 5.94609C6.64316 5.56816 5.55977 6.65156 5.94609 7.78535L8.75957 16.2174L0.80625 20.1982C-0.26875 20.7357 -0.26875 22.2643 0.80625 22.8018L8.75957 26.7742L5.94609 35.2146C5.56816 36.3568 6.65156 37.4402 7.78535 37.0539L16.2174 34.2404L20.1898 42.1937C20.7273 43.2687 22.2559 43.2687 22.7934 42.1937L26.7658 34.2404L35.1979 37.0539C36.34 37.4318 37.4234 36.3484 37.0371 35.2146L34.2236 26.7826L42.177 22.8102C43.2687 22.2643 43.2687 20.7357 42.1937 20.1982ZM29.1006 29.1006C24.9098 33.2914 18.0902 33.2914 13.8994 29.1006C9.70859 24.9098 9.70859 18.0902 13.8994 13.8994C18.0902 9.70859 24.9098 9.70859 29.1006 13.8994C33.2914 18.0902 33.2914 24.9098 29.1006 29.1006Z" fill="#F7DB6D"/>
<path d="M51.57 44.0916L45.5366 37.3756H47.8498C48.5302 37.3756 49.1321 37.0045 49.4191 36.4063C49.7061 35.8095 49.6117 35.1252 49.1714 34.6213L43.271 27.8756H45.4528C46.14 27.8756 46.7593 27.4785 47.0281 26.8654C47.294 26.262 47.1686 25.5599 46.7079 25.0783L38.3802 16.359C37.9248 15.8803 37.0752 15.8803 36.6191 16.359L28.2907 25.0783C27.83 25.5599 27.7054 26.262 27.9704 26.8654C28.2393 27.4785 28.8593 27.8756 29.5466 27.8756H31.7284L25.8272 34.6228C25.3884 35.126 25.294 35.8095 25.5802 36.407C25.8672 37.0045 26.4683 37.3756 27.1495 37.3756H29.4627L23.4294 44.0916C22.9763 44.5956 22.8735 45.2858 23.1605 45.8922C23.4437 46.4896 24.0668 46.8756 24.7472 46.8756H35.083V48.6902L32.7955 52.2824C32.3937 53.0721 32.9782 54.0013 33.8762 54.0013H41.1232C42.0211 54.0013 42.6056 53.0721 42.2039 52.2824L39.9163 48.6902V46.8756H50.2521C50.9326 46.8756 51.5556 46.4896 51.8388 45.8922C52.1258 45.2858 52.0231 44.5956 51.57 44.0916Z" fill="#4C4C4C"/>
</svg>
