<svg width="59" height="48" viewBox="0 0 59 48" fill="none" xmlns="http://www.w3.org/2000/svg">
<g clip-path="url(#clip0)">
<path d="M21.5 13.4375C17.0572 13.4375 13.4375 17.0572 13.4375 21.5C13.4375 25.9428 17.0572 29.5625 21.5 29.5625C25.9428 29.5625 29.5625 25.9428 29.5625 21.5C29.5625 17.0572 25.9428 13.4375 21.5 13.4375ZM42.1937 20.1982L34.2404 16.2258L37.0539 7.79375C37.4318 6.65156 36.3484 5.56816 35.2146 5.95449L26.7826 8.76797L22.8018 0.80625C22.2643 -0.26875 20.7357 -0.26875 20.1982 0.80625L16.2258 8.75957L7.78535 5.94609C6.64316 5.56816 5.55977 6.65156 5.94609 7.78535L8.75957 16.2174L0.80625 20.1982C-0.26875 20.7357 -0.26875 22.2643 0.80625 22.8018L8.75957 26.7742L5.94609 35.2146C5.56816 36.3568 6.65156 37.4402 7.78535 37.0539L16.2174 34.2404L20.1898 42.1937C20.7273 43.2687 22.2559 43.2687 22.7934 42.1937L26.7658 34.2404L35.1979 37.0539C36.34 37.4318 37.4234 36.3484 37.0371 35.2146L34.2236 26.7826L42.177 22.8102C43.2687 22.2643 43.2687 20.7357 42.1937 20.1982ZM29.1006 29.1006C24.9098 33.2914 18.0902 33.2914 13.8994 29.1006C9.70859 24.9098 9.70859 18.0902 13.8994 13.8994C18.0902 9.70859 24.9098 9.70859 29.1006 13.8994C33.2914 18.0902 33.2914 24.9098 29.1006 29.1006Z" fill="#F7DB6D"/>
</g>
<path fill-rule="evenodd" clip-rule="evenodd" d="M22.371 34.1863L35.8015 23.4092C36.5649 22.7966 37.6542 22.8048 38.4083 23.4288L51.7784 34.4916V45.9394C51.7784 47.0774 50.8551 48 49.7161 48H24.4333C23.2943 48 22.371 47.0774 22.371 45.9394V34.1863ZM38.8114 41.02C39.044 41.2614 39.1603 41.5883 39.1603 42.0007C39.1603 42.398 39.0314 42.7148 38.7735 42.9512C38.5157 43.1825 38.1643 43.2982 37.7193 43.2982C37.1834 43.2982 36.7713 43.1398 36.4831 42.823C36.2 42.5011 36.0584 42.0409 36.0584 41.4425H33.8666C33.8666 42.4734 34.1497 43.3007 34.716 43.9243C35.2874 44.5429 36.0913 44.9075 37.1278 45.0182V46.5118H38.3337V45.0106C39.2741 44.9151 40.0123 44.6007 40.5482 44.0677C41.0842 43.5346 41.3521 42.8406 41.3521 41.9856C41.3521 41.528 41.2813 41.1282 41.1398 40.7862C40.9982 40.4392 40.7934 40.1324 40.5255 39.8659C40.2575 39.5943 39.9288 39.3529 39.5395 39.1417C39.1502 38.9254 38.6522 38.6966 38.0455 38.4552C37.4438 38.2138 37.0317 37.9775 36.8092 37.7461C36.5868 37.5148 36.4755 37.208 36.4755 36.8258C36.4755 36.4134 36.5893 36.0916 36.8168 35.8602C37.0443 35.6239 37.3654 35.5057 37.78 35.5057C38.1997 35.5057 38.5334 35.6565 38.7811 35.9583C39.0339 36.255 39.1603 36.7051 39.1603 37.3086H41.3521C41.3521 36.3279 41.0993 35.5308 40.5937 34.9173C40.0881 34.2987 39.3878 33.9265 38.4929 33.8008V32.1639H37.2795V33.7782C36.3744 33.8687 35.6489 34.1855 35.1028 34.7287C34.5568 35.2718 34.2837 35.9683 34.2837 36.8183C34.2837 37.3111 34.3621 37.7361 34.5188 38.0931C34.6806 38.4502 34.9031 38.762 35.1862 39.0285C35.4744 39.29 35.8182 39.5239 36.2177 39.7301C36.6171 39.9312 37.0924 40.1349 37.6435 40.3411C38.1946 40.5473 38.5839 40.7736 38.8114 41.02Z" fill="#4C4C4C"/>
<path d="M58.6617 30.7459L52.276 25.4867V14.9158C52.276 14.6729 52.1795 14.44 52.0076 14.2682C51.8357 14.0965 51.6025 14 51.3595 14H47.082C46.8389 14 46.6058 14.0965 46.4339 14.2682C46.262 14.44 46.1654 14.6729 46.1654 14.9158V20.4573L39.3268 14.8357C38.6706 14.2961 37.8471 14.0011 36.9972 14.0011C36.1473 14.0011 35.3237 14.2961 34.6675 14.8357L15.3326 30.7459C15.2398 30.8225 15.163 30.9167 15.1067 31.023C15.0503 31.1293 15.0154 31.2457 15.0041 31.3655C14.9927 31.4852 15.0051 31.6061 15.0405 31.7211C15.0759 31.8361 15.1337 31.943 15.2104 32.0356L17.1582 34.4015C17.2348 34.4945 17.3289 34.5716 17.4353 34.6282C17.5417 34.6848 17.6582 34.7199 17.7782 34.7314C17.8982 34.743 18.0192 34.7308 18.1345 34.6955C18.2497 34.6602 18.3569 34.6026 18.4498 34.5259L36.4166 19.7399C36.5822 19.6066 36.7884 19.5339 37.001 19.5339C37.2136 19.5339 37.4198 19.6066 37.5853 19.7399L55.5529 34.5259C55.6456 34.6026 55.7526 34.6603 55.8677 34.6957C55.9828 34.7311 56.1038 34.7434 56.2236 34.7321C56.3435 34.7208 56.46 34.6859 56.5664 34.6296C56.6728 34.5733 56.767 34.4966 56.8438 34.4038L58.7915 32.0379C58.8682 31.9447 58.9257 31.8373 58.9607 31.7218C58.9957 31.6063 59.0075 31.485 58.9954 31.3649C58.9833 31.2449 58.9476 31.1284 58.8904 31.0221C58.8331 30.9159 58.7554 30.822 58.6617 30.7459Z" fill="#4C4C4C"/>
<defs>
<clipPath id="clip0">
<rect width="43" height="43" fill="white"/>
</clipPath>
</defs>
</svg>
