<svg width="60" height="60" viewBox="0 0 60 60" fill="none" xmlns="http://www.w3.org/2000/svg">
<path d="M29.6595 14.3943C21.2449 14.3943 14.4576 21.158 14.4576 29.5434C14.4576 37.9288 21.2449 44.6924 29.6595 44.6924C38.0741 44.6924 44.8614 37.9288 44.8614 29.5434C44.8614 21.158 38.0741 14.3943 29.6595 14.3943ZM29.6595 39.3922C24.2218 39.3922 19.7763 34.9754 19.7763 29.5434C19.7763 24.1113 24.2085 19.6945 29.6595 19.6945C35.1105 19.6945 39.5427 24.1113 39.5427 29.5434C39.5427 34.9754 35.0973 39.3922 29.6595 39.3922ZM49.029 13.7746C49.029 15.7391 47.4413 17.3081 45.4832 17.3081C43.5119 17.3081 41.9374 15.7259 41.9374 13.7746C41.9374 11.8233 43.5251 10.2411 45.4832 10.2411C47.4413 10.2411 49.029 11.8233 49.029 13.7746ZM59.0974 17.3608C58.8725 12.6275 57.7876 8.43484 54.308 4.98048C50.8416 1.52612 46.6343 0.44498 41.8845 0.207657C36.9892 -0.0692191 22.3166 -0.0692191 17.4213 0.207657C12.6848 0.431795 8.47746 1.51293 4.99783 4.96729C1.5182 8.42165 0.44653 12.6144 0.208381 17.3476C-0.0694602 22.2259 -0.0694602 36.8476 0.208381 41.7259C0.433299 46.4592 1.5182 50.6519 4.99783 54.1062C8.47746 57.5606 12.6715 58.6417 17.4213 58.8791C22.3166 59.1559 36.9892 59.1559 41.8845 58.8791C46.6343 58.6549 50.8416 57.5738 54.308 54.1062C57.7744 50.6519 58.8593 46.4592 59.0974 41.7259C59.3753 36.8476 59.3753 22.2391 59.0974 17.3608ZM52.7732 46.9602C51.7413 49.5444 49.7434 51.5352 47.137 52.5768C43.234 54.1194 33.9727 53.7634 29.6595 53.7634C25.3464 53.7634 16.0718 54.1062 12.182 52.5768C9.58882 51.5484 7.59101 49.5576 6.5458 46.9602C4.99783 43.0707 5.35505 33.8415 5.35505 29.5434C5.35505 25.2452 5.01106 16.0028 6.5458 12.1265C7.57778 9.54234 9.57559 7.55147 12.182 6.50989C16.085 4.96729 25.3464 5.32328 29.6595 5.32328C33.9727 5.32328 43.2473 4.98048 47.137 6.50989C49.7302 7.53829 51.728 9.52916 52.7732 12.1265C54.3212 16.016 53.964 25.2452 53.964 29.5434C53.964 33.8415 54.3212 43.0839 52.7732 46.9602Z" fill="#D8D8D8"/>
</svg>
