<svg width="63" height="43" viewBox="0 0 63 43" fill="none" xmlns="http://www.w3.org/2000/svg">
<path d="M21.5 13.4375C17.0572 13.4375 13.4375 17.0572 13.4375 21.5C13.4375 25.9428 17.0572 29.5625 21.5 29.5625C25.9428 29.5625 29.5625 25.9428 29.5625 21.5C29.5625 17.0572 25.9428 13.4375 21.5 13.4375ZM42.1937 20.1982L34.2404 16.2258L37.0539 7.79375C37.4318 6.65156 36.3484 5.56816 35.2146 5.95449L26.7826 8.76797L22.8018 0.80625C22.2643 -0.26875 20.7357 -0.26875 20.1982 0.80625L16.2258 8.75957L7.78535 5.94609C6.64316 5.56816 5.55977 6.65156 5.94609 7.78535L8.75957 16.2174L0.80625 20.1982C-0.26875 20.7357 -0.26875 22.2643 0.80625 22.8018L8.75957 26.7742L5.94609 35.2146C5.56816 36.3568 6.65156 37.4402 7.78535 37.0539L16.2174 34.2404L20.1898 42.1937C20.7273 43.2687 22.2559 43.2687 22.7934 42.1937L26.7658 34.2404L35.1979 37.0539C36.34 37.4318 37.4234 36.3484 37.0371 35.2146L34.2236 26.7826L42.177 22.8102C43.2687 22.2643 43.2687 20.7357 42.1937 20.1982ZM29.1006 29.1006C24.9098 33.2914 18.0902 33.2914 13.8994 29.1006C9.70859 24.9098 9.70859 18.0902 13.8994 13.8994C18.0902 9.70859 24.9098 9.70859 29.1006 13.8994C33.2914 18.0902 33.2914 24.9098 29.1006 29.1006Z" fill="#F7DB6D"/>
<path d="M39.706 13.9916L43.8516 15.0809C43.9924 15.1137 44.1184 15.192 44.21 15.3035C44.3015 15.4151 44.3536 15.5537 44.3581 15.6979C44.3581 16.0482 44.0456 16.3377 43.6614 16.3377H40.9419C40.6489 16.3369 40.3587 16.28 40.0872 16.1701C39.6869 16.0025 39.2255 16.0406 38.9184 16.3225L37.467 17.6555C37.3999 17.7141 37.3419 17.7824 37.2951 17.8581C37.2352 17.9561 37.1953 18.065 37.1778 18.1784C37.1603 18.2919 37.1654 18.4076 37.193 18.5191C37.2205 18.6305 37.2699 18.7355 37.3383 18.8278C37.4067 18.9201 37.4928 18.998 37.5915 19.057C38.3953 19.538 39.2952 19.8371 40.2277 19.933V21.2812C40.2277 21.9516 40.8258 22.5 41.5546 22.5H42.8815C43.611 22.5 44.2091 21.9516 44.2091 21.2812V19.9406C46.7246 19.6664 48.6274 17.5793 48.2959 15.1418C48.0553 13.3898 46.5802 11.9959 44.7392 11.5084L40.5936 10.4191C40.4528 10.3863 40.3268 10.308 40.2353 10.1965C40.1437 10.0849 40.0916 9.94626 40.0872 9.80215C40.0872 9.45176 40.3996 9.1623 40.7838 9.1623H43.5033C43.7973 9.16276 44.0886 9.21965 44.3611 9.32988C44.7606 9.49746 45.2228 9.45937 45.5299 9.17754L46.9812 7.84453C47.0462 7.78719 47.102 7.72042 47.147 7.64648C47.2074 7.54851 47.2478 7.43956 47.2658 7.32594C47.2837 7.21231 47.2789 7.09627 47.2517 6.98451C47.2244 6.87274 47.1752 6.76747 47.1069 6.67479C47.0386 6.5821 46.9525 6.50383 46.8537 6.44449C46.0496 5.96349 45.1494 5.66446 44.2167 5.56852V4.21875C44.2167 3.54844 43.6194 3 42.8899 3H41.563C40.8335 3 40.2361 3.54844 40.2361 4.21875V5.55937C37.7237 5.83359 35.817 7.9207 36.1485 10.3582C36.3884 12.1102 37.8681 13.5041 39.706 13.9916ZM62.1803 27.992C61.279 27.177 59.8734 27.2303 58.9262 27.992L51.8678 33.6211C51.0014 34.3142 49.9231 34.6906 48.8123 34.6875H39.7778C39.4536 34.6875 39.1427 34.5591 38.9135 34.3305C38.6843 34.102 38.5556 33.792 38.5556 33.4688C38.5556 33.1455 38.6843 32.8355 38.9135 32.607C39.1427 32.3784 39.4536 32.25 39.7778 32.25H45.7583C46.9728 32.25 48.1042 31.4197 48.2982 30.2238C48.3221 30.0865 48.3339 29.9473 48.3333 29.8079C48.3321 29.1623 48.074 28.5434 47.6158 28.0873C47.1575 27.6312 46.5364 27.375 45.8889 27.375H33.6667C31.6054 27.3755 29.6069 28.0826 28.0063 29.3776L24.4542 32.25H20.2222C19.8981 32.25 19.5872 32.3784 19.358 32.607C19.1288 32.8355 19 33.1455 19 33.4688V40.7812C19 41.1045 19.1288 41.4145 19.358 41.643C19.5872 41.8716 19.8981 42 20.2222 42H47.4755C48.5859 42.0009 49.6635 41.6248 50.531 40.9336L62.0833 31.7168C62.3612 31.4952 62.5872 31.2157 62.7456 30.8979C62.9039 30.5802 62.9908 30.2318 63.0001 29.877C63.0094 29.5223 62.941 29.1699 62.7995 28.8443C62.658 28.5187 62.447 28.2278 62.1811 27.992H62.1803Z" fill="#4C4C4C"/>
</svg>
