<svg width="197" height="46" viewBox="0 0 197 46" fill="none" xmlns="http://www.w3.org/2000/svg">
<path d="M126.305 37.5917L125.408 39.4653L125.261 39.3716C125.264 39.3011 125.252 39.2307 125.227 39.1658C125.201 39.1009 125.163 39.0432 125.114 38.9969C124.795 38.7015 124.416 38.4948 124.008 38.3946C123.531 38.2344 123.034 38.1532 122.534 38.1538C122.151 38.1488 121.769 38.2121 121.404 38.3411C120.925 38.5285 120.692 38.8095 120.692 39.1575C120.689 39.2703 120.721 39.381 120.784 39.4711C120.846 39.5611 120.935 39.6252 121.036 39.6526C121.463 39.7938 121.904 39.8747 122.35 39.8935L123.394 39.9738C124.116 39.9969 124.825 40.1934 125.47 40.5492C125.729 40.7229 125.952 40.9558 126.121 41.2318C126.332 41.5963 126.442 42.0188 126.44 42.4496C126.443 42.8423 126.35 43.2289 126.171 43.5697C125.992 43.9106 125.733 44.1937 125.421 44.3901C124.627 44.888 123.719 45.1251 122.804 45.0726C121.693 45.0729 120.594 44.808 119.586 44.2964H119.414C119.363 44.3008 119.314 44.319 119.271 44.3494C119.228 44.3798 119.193 44.4213 119.169 44.4704L119.07 44.283L119.82 42.3157L119.992 42.396C119.99 42.4573 120.002 42.518 120.025 42.5737C120.048 42.6294 120.083 42.6785 120.127 42.7172C120.464 42.9845 120.849 43.1714 121.257 43.2659C121.778 43.4129 122.315 43.4893 122.854 43.4934C123.27 43.4974 123.685 43.4297 124.082 43.2927C124.536 43.1321 124.77 42.8644 124.77 42.5031C124.77 42.1418 124.61 42.0079 124.291 41.8875C123.92 41.7901 123.542 41.7275 123.161 41.7001L122.117 41.6065C121.704 41.5758 121.293 41.5132 120.888 41.4191C120.616 41.351 120.355 41.2382 120.114 41.0846C119.831 40.8932 119.601 40.6199 119.451 40.295C119.296 39.9586 119.216 39.5873 119.218 39.211C119.206 38.8043 119.298 38.402 119.482 38.048C119.666 37.694 119.936 37.4019 120.262 37.2036C120.97 36.7578 121.779 36.5397 122.596 36.5746C123.071 36.5684 123.546 36.6269 124.008 36.7486C124.546 36.9085 125.068 37.1236 125.568 37.3909C125.686 37.4616 125.815 37.507 125.949 37.5248C126.052 37.5129 126.148 37.4606 126.219 37.3776L126.305 37.5917Z" fill="white"/>
<path d="M131.808 36.6416C132.859 36.5995 133.893 36.9435 134.743 37.6185C135.203 38.0009 135.57 38.499 135.814 39.0701C136.058 39.6411 136.171 40.2681 136.144 40.8973C136.16 41.5057 136.042 42.1094 135.798 42.657C135.554 43.2046 135.192 43.6799 134.743 44.0422C133.883 44.6785 132.866 45.0187 131.826 45.0187C130.786 45.0187 129.77 44.6785 128.909 44.0422C128.452 43.6717 128.085 43.1857 127.839 42.6262C127.593 42.0667 127.475 41.4504 127.497 40.8304C127.465 40.2063 127.576 39.5833 127.82 39.0179C128.065 38.4524 128.435 37.9623 128.897 37.5918C129.745 36.9356 130.768 36.6018 131.808 36.6416V36.6416ZM131.808 38.1538C131.462 38.1369 131.117 38.1997 130.796 38.3381C130.474 38.4765 130.183 38.6873 129.941 38.9568C129.514 39.4671 129.277 40.1329 129.277 40.8237C129.277 41.5144 129.514 42.1802 129.941 42.6905C130.183 42.9601 130.474 43.1709 130.796 43.3093C131.117 43.4476 131.462 43.5104 131.808 43.4935C132.151 43.5085 132.494 43.4448 132.813 43.3065C133.133 43.1682 133.422 42.9583 133.663 42.6905C133.881 42.4493 134.052 42.1626 134.166 41.8475C134.28 41.5325 134.334 41.1956 134.326 40.8571C134.34 40.5078 134.289 40.1589 134.175 39.832C134.061 39.5052 133.887 39.2073 133.663 38.9568C133.419 38.6977 133.131 38.4934 132.815 38.3556C132.499 38.2178 132.161 38.1493 131.82 38.1538H131.808Z" fill="white"/>
<path d="M139.951 43.3865H144.078C144.188 43.3979 144.297 43.3645 144.386 43.2928C144.477 43.1935 144.541 43.0683 144.57 42.9315H144.742V45.3002H144.57C144.539 45.167 144.48 45.0433 144.398 44.9389C144.305 44.8684 144.192 44.8353 144.078 44.8452H137.765V44.6444C137.89 44.6186 138.005 44.5535 138.097 44.4571C138.161 44.3554 138.192 44.2325 138.183 44.1091V37.5918C138.192 37.4726 138.162 37.3538 138.097 37.2572C138.007 37.158 137.891 37.0924 137.765 37.0699V36.8691H140.369V37.0699C140.243 37.0924 140.127 37.158 140.037 37.2572C139.973 37.3538 139.942 37.4726 139.951 37.5918V43.3865Z" fill="white"/>
<path d="M153.794 37.5918V41.8475C153.854 42.6066 153.667 43.3644 153.266 43.9887C152.834 44.4051 152.326 44.717 151.776 44.9038C151.225 45.0907 150.645 45.1482 150.072 45.0727C149.2 45.111 148.33 44.9325 147.53 44.5508C147.097 44.3339 146.754 43.9467 146.572 43.4668C146.407 42.9462 146.328 42.398 146.338 41.8475V37.5918C146.348 37.4726 146.317 37.3538 146.252 37.2572C146.163 37.158 146.047 37.0924 145.921 37.0699V36.8691H148.549V37.0699C148.423 37.0924 148.307 37.158 148.218 37.2572C148.153 37.3538 148.122 37.4726 148.132 37.5918V41.4594C148.124 41.806 148.157 42.1524 148.23 42.4898C148.301 42.7227 148.433 42.9276 148.611 43.0787C149.067 43.4222 149.617 43.5873 150.171 43.5471C150.724 43.5873 151.274 43.4222 151.731 43.0787C151.904 42.9263 152.032 42.7214 152.099 42.4898C152.185 42.1546 152.222 41.807 152.21 41.4594V37.5918C152.216 37.4709 152.181 37.3519 152.111 37.2572C152.026 37.1518 151.908 37.085 151.78 37.0699V36.8691H154.236V37.0699C154.11 37.0924 153.994 37.158 153.905 37.2572C153.831 37.35 153.792 37.4692 153.794 37.5918V37.5918Z" fill="white"/>
<path d="M159.96 38.2609V44.1091C159.951 44.2282 159.981 44.3471 160.046 44.4436C160.137 44.5431 160.252 44.6127 160.378 44.6444V44.8451H157.774V44.6444C157.895 44.6192 158.007 44.5538 158.093 44.457C158.162 44.3571 158.197 44.234 158.191 44.1091V38.2609H156.017C155.903 38.2548 155.79 38.2927 155.698 38.3679C155.616 38.4724 155.557 38.5961 155.526 38.7293H155.354V36.3472H155.526C155.547 36.4844 155.607 36.611 155.698 36.7085C155.789 36.7859 155.902 36.824 156.017 36.8156H162.159C162.274 36.824 162.388 36.7859 162.478 36.7085C162.569 36.611 162.629 36.4844 162.65 36.3472H162.834V38.7293H162.65C162.629 38.592 162.569 38.4655 162.478 38.3679C162.388 38.2905 162.274 38.2524 162.159 38.2609H159.96Z" fill="white"/>
<path d="M166.274 37.5918V44.1627C166.268 44.2835 166.303 44.4025 166.372 44.4972C166.46 44.5935 166.57 44.6627 166.691 44.698V44.8987H164.087V44.698C164.213 44.6754 164.329 44.6098 164.419 44.5106C164.488 44.4107 164.523 44.2876 164.517 44.1627V37.5918C164.523 37.4709 164.488 37.3519 164.419 37.2572C164.329 37.158 164.213 37.0924 164.087 37.0699V36.8691H166.691V37.0699C166.57 37.0951 166.458 37.1605 166.372 37.2572C166.303 37.3519 166.268 37.4709 166.274 37.5918V37.5918Z" fill="white"/>
<path d="M172.673 36.6415C173.709 36.5985 174.729 36.9328 175.572 37.5916C176.031 37.974 176.398 38.4721 176.642 39.0432C176.886 39.6142 176.999 40.2412 176.972 40.8704C176.993 41.4832 176.876 42.0923 176.632 42.6449C176.388 43.1976 176.024 43.6771 175.572 44.042C174.711 44.6784 173.695 45.0185 172.655 45.0185C171.614 45.0185 170.598 44.6784 169.737 44.042C169.283 43.6692 168.917 43.1828 168.672 42.6238C168.426 42.0649 168.307 41.4497 168.325 40.8302C168.301 40.2097 168.417 39.5922 168.663 39.0321C168.909 38.472 169.278 37.9865 169.737 37.6184C170.589 36.9471 171.622 36.6034 172.673 36.6415V36.6415ZM172.673 38.1537C172.329 38.1387 171.987 38.2024 171.667 38.3407C171.348 38.479 171.059 38.6889 170.818 38.9567C170.391 39.467 170.154 40.1328 170.154 40.8235C170.154 41.5143 170.391 42.1801 170.818 42.6904C171.32 43.1955 171.978 43.476 172.661 43.476C173.344 43.476 174.002 43.1955 174.503 42.6904C174.721 42.4492 174.892 42.1624 175.006 41.8474C175.12 41.5324 175.175 41.1955 175.166 40.857C175.181 40.5076 175.13 40.1587 175.016 39.8319C174.902 39.505 174.727 39.2071 174.503 38.9567C174.016 38.4423 173.364 38.1544 172.685 38.1537H172.673Z" fill="white"/>
<path d="M180.706 39.5457V44.1091C180.697 44.2283 180.727 44.3471 180.792 44.4437C180.883 44.5432 180.998 44.6127 181.124 44.6444V44.8452H178.667V44.6444C178.789 44.6192 178.9 44.5538 178.986 44.4571C179.056 44.3572 179.09 44.2341 179.085 44.1091V37.5918C179.091 37.4709 179.056 37.3519 178.986 37.2572C178.9 37.1605 178.789 37.0951 178.667 37.0699V36.8691H181.492V37.0699C181.296 37.0699 181.197 37.2037 181.197 37.3375C181.208 37.4171 181.233 37.4937 181.271 37.5626C181.309 37.6316 181.359 37.6916 181.418 37.739L185.361 42.0214V37.5918C185.371 37.4726 185.34 37.3538 185.275 37.2572C185.186 37.158 185.07 37.0924 184.944 37.0699V36.8691H187.4V37.0699C187.274 37.0924 187.158 37.158 187.069 37.2572C187.004 37.3538 186.973 37.4726 186.983 37.5918V44.1627C186.973 44.2818 187.004 44.4007 187.069 44.4972C187.16 44.5967 187.275 44.6662 187.4 44.698V44.8987H184.759V44.698C184.956 44.698 185.054 44.5641 185.054 44.4303C185.052 44.3561 185.026 44.2852 184.981 44.2296L184.612 43.8013L180.706 39.5457Z" fill="white"/>
<path d="M196.318 37.5917L195.421 39.4653L195.274 39.3716C195.276 39.3011 195.265 39.2307 195.239 39.1658C195.214 39.1009 195.175 39.0432 195.126 38.9969C194.808 38.7015 194.429 38.4948 194.021 38.3946C193.543 38.2344 193.046 38.1532 192.547 38.1538C192.163 38.1488 191.782 38.2121 191.417 38.3411C190.938 38.5285 190.704 38.8095 190.704 39.1575C190.701 39.2703 190.734 39.381 190.796 39.4711C190.859 39.5611 190.948 39.6252 191.048 39.6526C191.475 39.7938 191.917 39.8747 192.362 39.8935L193.407 39.9738C194.129 39.9969 194.838 40.1934 195.482 40.5492C195.742 40.7229 195.964 40.9558 196.133 41.2318C196.344 41.5963 196.455 42.0188 196.453 42.4496C196.455 42.8423 196.362 43.2289 196.183 43.5697C196.004 43.9106 195.745 44.1937 195.433 44.3901C194.64 44.888 193.731 45.1251 192.817 45.0726C191.705 45.0729 190.607 44.808 189.599 44.2964H189.427C189.376 44.3008 189.327 44.319 189.284 44.3494C189.241 44.3798 189.206 44.4213 189.181 44.4704L189.083 44.283L189.832 42.3157L190.004 42.396C190.003 42.4573 190.014 42.518 190.038 42.5737C190.061 42.6294 190.096 42.6785 190.139 42.7172C190.476 42.9845 190.861 43.1714 191.269 43.2659C191.791 43.4129 192.327 43.4893 192.866 43.4934C193.283 43.4974 193.697 43.4297 194.094 43.2927C194.549 43.1321 194.782 42.8644 194.782 42.5031C194.782 42.1418 194.623 42.0079 194.303 41.8875C193.932 41.7901 193.554 41.7275 193.173 41.7001L192.129 41.6065C191.716 41.5758 191.306 41.5132 190.901 41.4191C190.629 41.351 190.368 41.2382 190.127 41.0846C189.843 40.8932 189.614 40.6199 189.464 40.295C189.309 39.9586 189.229 39.5873 189.23 39.211C189.219 38.8043 189.31 38.402 189.494 38.048C189.679 37.694 189.948 37.4019 190.274 37.2036C190.982 36.7578 191.791 36.5397 192.608 36.5746C193.084 36.5684 193.558 36.6269 194.021 36.7486C194.558 36.9085 195.08 37.1236 195.581 37.3909C195.699 37.4616 195.828 37.507 195.961 37.5248C196.065 37.5129 196.161 37.4606 196.232 37.3776L196.318 37.5917Z" fill="white"/>
<path d="M62.8516 12.0844L60.5301 17.0761L60.1125 16.8352C60.1177 16.7506 60.1177 16.6656 60.1125 16.581C60.1125 16.233 59.8423 15.8449 59.2895 15.4435C57.5505 14.1389 55.4802 13.4603 53.3692 13.503C52.467 13.486 51.5679 13.6214 50.7038 13.9045C50.1835 14.0851 49.7142 14.4076 49.3404 14.8412C49.0202 15.2009 48.836 15.6786 48.8245 16.1795C48.8245 16.9691 49.2667 17.5178 50.1511 17.8122C51.115 18.0351 52.0917 18.1871 53.0744 18.2672L55.3099 18.5215C56.4014 18.6289 57.4822 18.8393 58.5403 19.1504C59.3178 19.4066 60.055 19.7902 60.7266 20.288C61.3797 20.8122 61.9065 21.501 62.262 22.2953C62.6332 23.1291 62.8224 24.0452 62.8147 24.9719C62.8327 26.4385 62.3663 27.8634 61.5005 28.9866C60.5206 30.1591 59.2346 30.9764 57.8156 31.3286C56.5037 31.7233 55.1477 31.917 53.7868 31.9041C51.1384 31.887 48.5304 31.1949 46.1714 29.8833C45.8678 29.7085 45.5462 29.5737 45.2133 29.4818C44.9923 29.5322 44.7883 29.6479 44.6237 29.8164L44.1447 29.5621L46.2451 24.3563L46.6627 24.5704V24.7845C46.6681 25.0431 46.726 25.2972 46.8322 25.5286C46.9383 25.76 47.0902 25.9629 47.2769 26.1228C48.1226 26.8493 49.0969 27.3778 50.1388 27.6752C51.3306 28.0909 52.5724 28.3119 53.8236 28.3309C54.9344 28.3615 56.0376 28.1238 57.0541 27.635C57.5339 27.4048 57.9554 27.0512 58.2823 26.6045C58.558 26.2219 58.7131 25.7526 58.7245 25.2663C58.7405 24.9093 58.6429 24.5572 58.4482 24.2695C58.2535 23.9818 57.9737 23.7761 57.6559 23.6871C56.6988 23.383 55.7147 23.1901 54.7203 23.1117L52.5339 22.8708C51.0723 22.6968 50.0774 22.5362 49.4141 22.389C48.7834 22.2296 48.1729 21.9869 47.5962 21.6664C46.738 21.2055 46.0273 20.4733 45.5573 19.5653C45.1026 18.6838 44.8736 17.6855 44.894 16.6747C44.8743 15.8447 45.0162 15.0196 45.3105 14.2537C45.6048 13.4879 46.0447 12.7987 46.6013 12.2316C48.4597 10.5461 50.8476 9.71568 53.2586 9.91644C54.4283 9.90396 55.5952 10.0432 56.7347 10.3313C58.1093 10.7201 59.4526 11.2303 60.7512 11.8569C61.0741 12.013 61.4119 12.1297 61.7584 12.2049C62.02 12.1736 62.2654 12.0516 62.4585 11.8569L62.8516 12.0844Z" fill="#DB950B"/>
<path d="M86.6805 11.9238V23.8076C86.7913 25.5761 86.3965 27.3387 85.5504 28.8528C84.1748 30.8602 81.3497 31.8639 77.0752 31.8639C74.6054 32.023 72.1414 31.4593 69.9389 30.2312C69.0173 29.6522 68.3127 28.7376 67.949 27.6484C67.5918 26.4069 67.4339 25.1076 67.4823 23.8076V11.9238C67.494 11.6615 67.4248 11.4024 67.2858 11.1878C67.0835 10.9901 66.8383 10.8519 66.5734 10.7863V10.2911H72.6411V10.8264C72.3716 10.8778 72.1229 11.0179 71.9287 11.2279C71.7777 11.4365 71.7033 11.6989 71.7199 11.964V22.5362C71.6988 23.4329 71.7606 24.3295 71.9041 25.2127C72.011 25.7594 72.2532 26.2639 72.6043 26.6714C73.2399 27.2531 73.9761 27.6902 74.7693 27.9568C75.5625 28.2234 76.3967 28.3142 77.2226 28.2238C79.4458 28.2238 81.0058 27.6885 81.9147 26.6313C82.2579 26.2195 82.4952 25.7163 82.6025 25.1726C82.7461 24.2894 82.8079 23.3927 82.7868 22.4961V11.9238C82.8011 11.659 82.7269 11.3976 82.578 11.1878C82.3795 10.9842 82.1328 10.8451 81.8656 10.7863V10.2911H87.6017V10.8264C87.3345 10.8853 87.0877 11.0243 86.8893 11.2279C86.7486 11.427 86.6749 11.6726 86.6805 11.9238V11.9238Z" fill="#DB950B"/>
<path d="M96.6665 16.9691V29.8565C96.6486 30.1196 96.7184 30.3809 96.863 30.5925C97.0633 30.7933 97.3093 30.9319 97.5754 30.994V31.4892H91.8638V30.994C92.13 30.9319 92.376 30.7933 92.5762 30.5925C92.7208 30.3809 92.7906 30.1196 92.7728 29.8565V11.9104C92.791 11.6514 92.721 11.3942 92.5762 11.1878C92.376 10.987 92.13 10.8484 91.8638 10.7863V10.2911H98.472V10.8264C98.0667 10.9469 97.8579 11.1744 97.8579 11.5357C97.8883 11.8594 98.0338 12.1572 98.2632 12.3654L108.986 24.5302V11.9506C109.001 11.6899 108.927 11.4324 108.777 11.2279C108.582 11.0271 108.34 10.8882 108.077 10.8264V10.2911H113.777V10.8264C113.514 10.8882 113.272 11.0271 113.076 11.2279C112.927 11.4324 112.853 11.6899 112.868 11.9506V29.8565C112.853 30.1213 112.927 30.3827 113.076 30.5925C113.272 30.7934 113.514 30.9322 113.777 30.994V31.4892H107.635V30.994C108.028 30.9003 108.237 30.6728 108.237 30.3249C108.237 29.9769 108.004 29.7494 107.537 29.2409L96.6665 16.9691Z" fill="#DB950B"/>
<path d="M123.64 22.8709V29.8968C123.624 30.1576 123.698 30.4155 123.848 30.6194C124.039 30.827 124.283 30.967 124.549 31.0209V31.516H118.493V31.0209C118.758 30.9553 119.003 30.8171 119.206 30.6194C119.344 30.4099 119.414 30.155 119.402 29.8968V11.9239C119.414 11.6616 119.345 11.4025 119.206 11.1879C119.003 10.9902 118.758 10.852 118.493 10.7864V10.2913H130.653C131.834 10.2659 133.014 10.3599 134.178 10.5723C134.987 10.7343 135.759 11.0661 136.451 11.5492C137.195 12.0835 137.777 12.8477 138.121 13.744C138.478 14.6434 138.658 15.6145 138.649 16.5945C138.649 20.065 136.889 22.0902 133.368 22.6702L137.139 28.5183C137.564 29.2297 138.054 29.8932 138.6 30.499C138.914 30.7997 139.313 30.9745 139.73 30.9941V31.4893H132.717V30.9941C133.196 30.9138 133.441 30.7265 133.441 30.4321C133.293 29.9449 133.064 29.4913 132.766 29.0938L128.897 22.8709H123.64ZM123.64 19.378H130.199C130.884 19.3878 131.568 19.3565 132.25 19.2844C132.631 19.2201 133 19.089 133.343 18.8963C133.708 18.6667 134.003 18.3274 134.195 17.919C134.387 17.5107 134.466 17.0508 134.424 16.5945C134.466 16.1381 134.387 15.6782 134.195 15.2699C134.003 14.8615 133.708 14.5222 133.343 14.2926C133.002 14.0936 132.632 13.958 132.25 13.8912C131.568 13.824 130.883 13.7972 130.199 13.8109H123.64V19.378Z" fill="#D2C4E0"/>
<path d="M144.152 29.8565V11.9104C144.167 11.6497 144.092 11.3923 143.943 11.1878C143.745 10.9842 143.498 10.8451 143.231 10.7863V10.2911H149.299V10.8264C149.029 10.8778 148.78 11.0179 148.586 11.2279C148.439 11.4331 148.369 11.6913 148.39 11.9506V29.8565C148.373 30.1216 148.447 30.3839 148.599 30.5925C148.789 30.8002 149.033 30.9401 149.299 30.994V31.4892H143.231V30.994C143.498 30.9352 143.745 30.7961 143.943 30.5925C144.092 30.3827 144.166 30.1213 144.152 29.8565V29.8565Z" fill="#D2C4E0"/>
<path d="M172.047 12.0844L169.725 17.0761L169.32 16.8352C169.325 16.7506 169.325 16.6656 169.32 16.581C169.32 16.233 169.05 15.8449 168.497 15.4435C166.754 14.1362 164.679 13.4575 162.564 13.503C161.662 13.486 160.763 13.6214 159.899 13.9045C159.379 14.0851 158.909 14.4076 158.535 14.8412C158.215 15.2009 158.031 15.6786 158.02 16.1795C158.02 16.9691 158.462 17.5178 159.346 17.8122C160.31 18.0351 161.287 18.1871 162.269 18.2672L164.505 18.5215C165.596 18.6289 166.677 18.8393 167.735 19.1504C168.513 19.4066 169.25 19.7902 169.922 20.288C170.575 20.8122 171.101 21.501 171.457 22.2953C171.925 23.364 172.101 24.5568 171.964 25.7315C171.827 26.9061 171.382 28.0129 170.683 28.9197C169.707 30.0976 168.42 30.916 166.998 31.2617C165.686 31.6564 164.33 31.8501 162.97 31.8371C160.321 31.82 157.713 31.128 155.354 29.8164C155.051 29.6416 154.729 29.5068 154.396 29.4149C154.175 29.4652 153.971 29.581 153.806 29.7494L153.401 29.5219L155.502 24.3161L155.919 24.5302V24.7444C155.925 25.003 155.982 25.2571 156.089 25.4885C156.195 25.7198 156.347 25.9227 156.533 26.0826C157.379 26.8092 158.353 27.3377 159.395 27.635C160.587 28.0507 161.829 28.2717 163.08 28.2907C164.191 28.32 165.294 28.0824 166.31 27.5948C166.79 27.3646 167.212 27.011 167.539 26.5644C167.814 26.1817 167.969 25.7124 167.981 25.2261C167.982 24.888 167.882 24.5585 167.696 24.288C167.51 24.0175 167.248 23.8206 166.949 23.7273C165.992 23.4231 165.008 23.2302 164.014 23.1518L161.729 22.8708C160.255 22.6968 159.272 22.5362 158.609 22.389C157.978 22.2318 157.367 21.989 156.791 21.6664C155.933 21.2055 155.222 20.4733 154.752 19.5653C154.298 18.6838 154.069 17.6855 154.089 16.6747C154.068 15.8457 154.208 15.0212 154.5 14.2554C154.792 13.4896 155.23 12.7999 155.784 12.2316C157.642 10.5461 160.03 9.71568 162.441 9.91644C163.611 9.90509 164.778 10.0443 165.917 10.3313C167.292 10.7201 168.635 11.2303 169.934 11.8569C170.257 12.013 170.595 12.1297 170.941 12.2049C171.203 12.1736 171.448 12.0516 171.641 11.8569L172.047 12.0844Z" fill="#D2C4E0"/>
<path d="M181.259 22.1883V27.9963H193.763C193.996 28.0141 194.228 27.9379 194.414 27.7822C194.598 27.564 194.725 27.296 194.782 27.006H195.224V32.4795H194.77C194.713 32.1895 194.586 31.9215 194.401 31.7033C194.216 31.5476 193.984 31.4714 193.75 31.4892H176.1V30.994C176.366 30.9319 176.612 30.7933 176.812 30.5925C176.957 30.3809 177.027 30.1196 177.009 29.8565V11.9238C177.027 11.6607 176.957 11.3994 176.812 11.1878C176.612 10.987 176.366 10.8484 176.1 10.7863V10.2912H193.419C193.654 10.3064 193.886 10.2253 194.07 10.0636C194.252 9.84882 194.379 9.58582 194.438 9.30084H194.893V14.8412H194.438C194.379 14.5563 194.252 14.2933 194.07 14.0784C193.886 13.9168 193.654 13.8357 193.419 13.8509H181.259V18.856H189.144C189.378 18.8764 189.611 18.7999 189.795 18.6419C189.988 18.4303 190.117 18.1594 190.164 17.8657H190.618V23.2187H190.164C190.114 22.9298 189.986 22.6639 189.795 22.4559C189.612 22.2943 189.38 22.2132 189.144 22.2284L181.259 22.1883Z" fill="#D2C4E0"/>
<path d="M24.4922 14.5202C24.7775 14.6777 25.0525 14.8565 25.3151 15.0555H26.6294C25.2018 13.317 23.2124 12.2476 21.0775 12.0711L24.4922 14.5202Z" fill="#DB950B"/>
<path d="M12.7497 25.6678L12.2092 25.253C12.5685 26.2636 13.0699 27.2072 13.6955 28.0499L14.0025 27.8358C13.4854 27.1874 13.0628 26.4562 12.7497 25.6678Z" fill="#DB950B"/>
<path d="M19.9966 30.7799H19.579L18.8174 31.6097C19.3142 31.7322 19.8196 31.8084 20.3282 31.8372H20.6107C20.9012 31.8568 21.1924 31.8568 21.4828 31.8372L20.0334 30.8201L19.9966 30.7799Z" fill="#DB950B"/>
<path d="M12.2092 22.0144C12.3232 19.6901 13.2351 17.4974 14.7641 15.8718C16.283 14.2919 18.302 13.41 20.4019 13.4094H20.5124C21.4451 13.4118 22.3708 13.5837 23.2515 13.9179L20.537 12.0309H20.2791C19.0936 12.0444 17.9225 12.3152 16.8342 12.8277C15.746 13.3401 14.7624 14.0838 13.9411 15.0153C13.1164 15.9386 12.4732 17.0355 12.0508 18.239C11.6284 19.4424 11.4357 20.727 11.4845 22.0144C11.5267 22.9256 11.6837 23.8263 11.9513 24.6909L12.5286 25.1057C12.2465 24.1059 12.1382 23.0575 12.2092 22.0144Z" fill="#DB950B"/>
<path d="M22.318 30.4722C21.7383 30.6309 21.146 30.7295 20.5493 30.7666L21.9249 31.7302C22.1908 31.6883 22.4535 31.6257 22.711 31.5428L22.0355 30.7934L22.318 30.4722Z" fill="#DB950B"/>
<path d="M18.277 30.5926C16.847 30.2792 15.5271 29.5323 14.4693 28.4381C14.3342 28.3042 14.2113 28.1436 14.0762 27.9964L13.7692 28.2106L14.1991 28.7325C15.4546 30.176 17.0745 31.1819 18.8543 31.6231L18.0928 30.7934L18.277 30.5926Z" fill="#DB950B"/>
<path d="M28.7789 19.9401H28.5823C28.7507 20.6115 28.8334 21.305 28.828 22.001C28.827 23.8613 28.2418 25.6652 27.1698 27.1132L27.4769 27.4477L26.703 28.2908L26.4328 27.983L26.138 28.2908C25.2218 29.1424 24.168 29.8005 23.0305 30.2313L23.5463 30.78L22.9199 31.4759C24.3553 30.9802 25.6327 30.0523 26.6048 28.7994C28.1057 26.8932 28.9217 24.4589 28.9017 21.9475C28.9116 21.2758 28.8705 20.6044 28.7789 19.9401V19.9401Z" fill="#DB950B"/>
<path d="M12.5654 25.1592L11.9881 24.7444C11.9881 24.9184 12.0986 25.0789 12.1601 25.2529L12.7496 25.6678L12.5654 25.1592Z" fill="#DB950B"/>
<path d="M20.365 30.78H20.0702L21.5196 31.797L21.9249 31.7301L20.5492 30.7666L20.365 30.78Z" fill="#DB950B"/>
<path d="M24.4921 14.5202L21.0775 12.0711H20.5739L23.2638 13.9179C23.689 14.078 24.1001 14.2796 24.4921 14.5202V14.5202Z" fill="#DB950B"/>
<path d="M13.9534 27.8359L13.6463 28.05L13.7691 28.2106L14.0762 27.9965L13.9534 27.8359Z" fill="#DB950B"/>
<path d="M26.6662 15.1491L26.5925 15.0554H25.2782C25.573 15.2695 25.8555 15.497 26.1257 15.7379C27.3046 16.8518 28.1585 18.3172 28.5823 19.9535H28.7788C28.4835 18.1743 27.7537 16.5147 26.6662 15.1491V15.1491Z" fill="#DB950B"/>
<path d="M23.2638 16.019C22.7799 15.3707 22.1694 14.8481 21.4767 14.4893C20.784 14.1305 20.0266 13.9444 19.2596 13.9447H19.1859C18.4272 13.956 17.6784 14.1336 16.9841 14.467C16.2899 14.8004 15.6643 15.2827 15.1448 15.8852C14.6287 16.4813 14.2313 17.1873 13.9776 17.9589C13.7239 18.7304 13.6195 19.5508 13.6709 20.3684C13.7613 21.4862 14.0948 22.5645 14.6437 23.514C15.1927 24.4635 15.9413 25.2568 16.8276 25.8285L17.4786 25.3868C16.8072 25.1775 16.1892 24.8019 15.673 24.2895C15.1936 23.7871 14.8234 23.1742 14.5897 22.4957C14.3559 21.8172 14.2644 21.0904 14.3219 20.3684C14.4254 18.9919 14.9841 17.7032 15.8941 16.7417C16.804 15.8359 17.9902 15.3304 19.2227 15.3231H19.321C20.5437 15.3537 21.7227 15.8242 22.6742 16.6614C23.2159 17.0881 23.6612 17.6438 23.9762 18.2861C24.2912 18.9284 24.4676 19.6406 24.4921 20.3684V20.4888L24.6149 20.4085C24.6386 18.8201 24.1617 17.2708 23.2638 16.019Z" fill="#DB950B"/>
<path d="M22.6988 24.2091C21.6908 25.0181 20.4855 25.4838 19.235 25.5474H18.8542C18.4993 25.5464 18.1453 25.506 17.7979 25.4269L17.0609 25.9221C17.7321 26.3172 18.4737 26.55 19.235 26.6046H19.4929C20.1991 26.5887 20.8937 26.4072 21.5296 26.0723C22.1655 25.7374 22.7277 25.2571 23.1778 24.6641C23.9573 23.5909 24.416 22.2831 24.4921 20.917L24.3569 21.0107C24.1986 22.2681 23.6055 23.4123 22.6988 24.2091Z" fill="#DB950B"/>
<path d="M17.454 25.3867L16.803 25.8283L17.061 25.9756L17.798 25.4804L17.454 25.3867Z" fill="#DB950B"/>
<path d="M24.4061 21.0107L24.5412 20.917C24.5412 20.743 24.5412 20.5825 24.5412 20.4085L24.4184 20.4888C24.4265 20.6628 24.4224 20.8373 24.4061 21.0107V21.0107Z" fill="#DB950B"/>
<path d="M10.6615 22.0813L8.61029 22.3623L10.7598 23.8746L10.6615 22.0813Z" fill="#DB950B"/>
<path d="M10.5387 24.1155L8.13128 22.4293L0 23.5802L10.5387 24.1155Z" fill="#DB950B"/>
<path d="M10.7844 24.1288L10.7598 23.8745L8.61032 22.3623L8.13129 22.4292L10.5387 24.1154L10.7844 24.1288Z" fill="#DB950B"/>
<path d="M36.4434 23.0716L37.3646 23.7273L40.1159 23.5801L36.4434 23.0716Z" fill="#DB950B"/>
<path d="M29.4052 22.0813L29.2824 24.1288L37.0698 23.7407L36.0626 23.0181L29.4052 22.0813Z" fill="#DB950B"/>
<path d="M36.1118 23.018L37.119 23.7407H37.3646L36.4434 23.0849L36.1118 23.018Z" fill="#DB950B"/>
<path d="M20.9915 11.6161L19.6158 0L19.1614 10.7195L20.4756 11.6562L20.9915 11.6161Z" fill="#DB950B"/>
<path d="M19.1491 11.0407L19.1122 11.75L20.058 11.683L19.1491 11.0407Z" fill="#DB950B"/>
<path d="M20.4755 11.6562L19.1613 10.7195L19.149 11.0406L20.0579 11.683L20.4755 11.6562Z" fill="#DB950B"/>
<path d="M15.0465 7.77529L14.4201 6.06232L14.7026 7.52102L15.0465 7.77529Z" fill="#DB950B"/>
<path d="M15.587 12.2316L16.5451 11.897L15.2308 8.28374L14.7764 7.96255L15.587 12.2316Z" fill="#DB950B"/>
<path d="M14.7763 7.96262L15.2307 8.2838L15.0465 7.77527L14.7026 7.521L14.7763 7.96262Z" fill="#DB950B"/>
<path d="M24.443 12.2585L25.3274 12.767L27.7103 7.06604L24.443 12.2585Z" fill="#DB950B"/>
<path d="M29.7001 19.9266L29.762 19.9133H29.7001V19.9266Z" fill="#DB950B"/>
<path d="M31.6407 19.2978L35.2151 18.1335L31.5916 18.5885L31.6407 19.2978Z" fill="#DB950B"/>
<path d="M29.4789 18.8561L29.7 19.9133H29.7614L31.6407 19.2977L31.5916 18.5884L29.4789 18.8561Z" fill="#DB950B"/>
<path d="M34.3062 29.7361L31.1863 27.6885L30.7073 28.2238L34.3062 29.7361Z" fill="#DB950B"/>
<path d="M28.9385 27.4879L30.4985 28.1303L29.872 27.4611L30.2405 27.0596L29.3562 26.4842L28.9385 27.4879Z" fill="#DB950B"/>
<path d="M24.4553 31.864L23.5218 32.2789L23.878 33.0953L24.9712 33.8581L24.4553 31.864Z" fill="#DB950B"/>
<path d="M25.0816 34.2862L24.099 33.6037L26.0151 37.9262L25.0816 34.2862Z" fill="#DB950B"/>
<path d="M25.0816 34.2862L24.9711 33.858L23.8779 33.0952L24.099 33.6037L25.0816 34.2862Z" fill="#DB950B"/>
<path d="M10.6984 18.4145L4.95001 18.2539L10.6124 19.4984L10.6984 18.4145Z" fill="#DB950B"/>
<path d="M11.202 27.9429L10.7721 26.9525L5.74841 30.0038L11.202 27.9429Z" fill="#DB950B"/>
<path d="M13.9533 37.7122L17.1591 32.4796L16.2502 31.971L13.9533 37.7122Z" fill="#DB950B"/>
<path d="M19.1859 33.6439L19.6158 34.1256L19.2228 34.5539L19.3333 37.1367L19.6158 37.4445L19.3579 37.7389L19.6158 43.7477L20.9915 32.1183L19.1122 31.9844L19.1859 33.6439Z" fill="#DB950B"/>
<path d="M27.7102 15.0421H30.1668L35.952 8.04297L27.7102 15.0421Z" fill="#DB950B"/>
<path d="M28.7543 16.755L30.1668 15.0421H28.7788H27.7102L27.44 15.2829L28.7543 16.755Z" fill="#DB950B"/>
<path d="M14.4692 30.0841L13.3638 28.4648L13.2164 28.5719L5.88348 36.0929V36.2134L14.4692 30.0841Z" fill="#DB950B"/>
<path d="M13.3515 28.438L13.2164 28.5716L13.3638 28.4647L13.3515 28.438Z" fill="#DB950B"/>
<path d="M5.47821 36.5077L5.88355 36.2133V36.0928L5.47821 36.5077Z" fill="#DB950B"/>
<path d="M27.6365 29.0002L26.8258 30.0841L27.4768 30.7934L27.1452 31.1414L30.3387 33.6172L30.6335 33.296L31.4073 34.1257L31.2231 34.313L34.4043 36.7888L34.5272 36.6684L27.6365 29.0002Z" fill="#DB950B"/>
<path d="M12.111 16.1661L13.4744 14.7476L5.24481 7.14627L12.111 16.1661Z" fill="#DB950B"/>
<path d="M27.4768 27.4611L27.1698 27.1266C26.9401 27.4322 26.6941 27.7226 26.4328 27.9964L26.703 28.3042L27.4768 27.4611Z" fill="#DB950B"/>
<path d="M30.4984 28.1302L30.7072 28.2239L31.1863 27.6886L30.2405 27.0596L29.872 27.4611L30.4984 28.1302Z" fill="#DB950B"/>
<path d="M19.579 30.7799C19.1334 30.7504 18.6902 30.6878 18.2524 30.5926L18.0682 30.7933L18.8297 31.6231L19.5913 30.7933L19.579 30.7799Z" fill="#DB950B"/>
<path d="M23.0305 30.2446L22.318 30.4721L22.0233 30.7933L22.7111 31.5427H22.9199L23.5463 30.8469L23.0305 30.2446Z" fill="#DB950B"/>
<path d="M26.8258 30.084L26.4451 30.5926L27.1452 31.1413L27.4768 30.7933L26.8258 30.084Z" fill="#DB950B"/>
<path d="M19.1859 33.6439L19.2228 34.5539L19.6158 34.1256L19.1859 33.6439Z" fill="#DB950B"/>
<path d="M30.6335 33.2959L30.3387 33.6171L31.2231 34.313L31.4073 34.1256L30.6335 33.2959Z" fill="#DB950B"/>
<path d="M19.3333 37.1367L19.3579 37.7389L19.6166 37.4445L19.3333 37.1367Z" fill="#DB950B"/>
</svg>
