<svg width="59" height="55" viewBox="0 0 59 55" fill="none" xmlns="http://www.w3.org/2000/svg">
<path d="M56.8567 2.64368L44.8726 0.0656134C43.5704 -0.213678 42.2337 0.420098 41.7037 1.55875L36.1725 13.5897C35.6886 14.6425 36.0112 15.8778 36.9676 16.5975L43.9507 21.9255C39.8023 30.1646 32.5542 37.018 23.5316 40.9603L17.8161 34.4506C17.0325 33.559 15.7188 33.2583 14.5896 33.7094L1.68359 38.8656C0.450605 39.3704 -0.229264 40.6165 0.0703394 41.8304L2.83591 53.002C3.12399 54.1621 4.23022 55 5.53234 55C35.0433 55 59 32.7104 59 5.1573C59 3.9542 58.1127 2.91223 56.8567 2.64368Z" fill="#D8D8D8"/>
</svg>
