<svg width="54" height="52" viewBox="0 0 54 52" fill="none" xmlns="http://www.w3.org/2000/svg">
<path d="M21.5 13.4375C17.0572 13.4375 13.4375 17.0572 13.4375 21.5C13.4375 25.9428 17.0572 29.5625 21.5 29.5625C25.9428 29.5625 29.5625 25.9428 29.5625 21.5C29.5625 17.0572 25.9428 13.4375 21.5 13.4375ZM42.1937 20.1982L34.2404 16.2258L37.0539 7.79375C37.4318 6.65156 36.3484 5.56816 35.2146 5.95449L26.7826 8.76797L22.8018 0.80625C22.2643 -0.26875 20.7357 -0.26875 20.1982 0.80625L16.2258 8.75957L7.78535 5.94609C6.64316 5.56816 5.55977 6.65156 5.94609 7.78535L8.75957 16.2174L0.80625 20.1982C-0.26875 20.7357 -0.26875 22.2643 0.80625 22.8018L8.75957 26.7742L5.94609 35.2146C5.56816 36.3568 6.65156 37.4402 7.78535 37.0539L16.2174 34.2404L20.1898 42.1937C20.7273 43.2687 22.2559 43.2687 22.7934 42.1937L26.7658 34.2404L35.1979 37.0539C36.34 37.4318 37.4234 36.3484 37.0371 35.2146L34.2236 26.7826L42.177 22.8102C43.2687 22.2643 43.2687 20.7357 42.1937 20.1982ZM29.1006 29.1006C24.9098 33.2914 18.0902 33.2914 13.8994 29.1006C9.70859 24.9098 9.70859 18.0902 13.8994 13.8994C18.0902 9.70859 24.9098 9.70859 29.1006 13.8994C33.2914 18.0902 33.2914 24.9098 29.1006 29.1006Z" fill="#F7DB6D"/>
<path d="M21.6798 43.7313L28.9985 36.4125C30.4423 34.9687 32.5985 34.6875 34.336 35.5438L40.9985 28.8813L40.9985 25L48.9985 19L52.9985 23L46.9985 31L43.1173 31L36.4548 37.6625C37.3048 39.4 37.0298 41.5563 35.586 43L28.2673 50.3188C27.3548 51.2313 25.8798 51.2313 24.9735 50.3188L21.6798 47.025C20.7735 46.1125 20.7735 44.6375 21.6798 43.7313ZM32.2673 33.0625C30.4985 33.0625 28.836 33.75 27.586 35L26.3735 36.2125C25.386 35.7812 24.4485 35.1812 23.636 34.3687C21.3173 32.05 20.5298 28.7875 21.2673 25.825C21.4048 25.2625 22.111 25.0687 22.5235 25.4812L27.1735 30.1312L31.4173 29.425L32.1235 25.1812L27.4735 20.5312C27.061 20.1187 27.261 19.4125 27.8298 19.2687C30.7923 18.5375 34.0548 19.325 36.3673 21.6375C38.1485 23.4187 38.986 25.7687 38.9423 28.1125L33.811 33.2437C33.3048 33.125 32.7798 33.0625 32.2673 33.0625ZM38.761 38.1875L42.3048 34.6438L51.8298 44.175C53.3923 45.7375 53.3923 48.2688 51.8298 49.8313C50.2673 51.3938 47.736 51.3938 46.1735 49.8313L38.4485 42.1063C38.9235 40.8625 39.0673 39.5063 38.761 38.1875ZM48.9985 48.5C49.8235 48.5 50.4985 47.825 50.4985 47C50.4985 46.1688 49.8298 45.5 48.9985 45.5C48.1673 45.5 47.4985 46.1688 47.4985 47C47.4985 47.825 48.1673 48.5 48.9985 48.5Z" fill="#4C4C4C"/>
</svg>
