<svg width="60" height="60" viewBox="0 0 60 60" fill="none" xmlns="http://www.w3.org/2000/svg">
<path d="M50.3951 8.58316C44.8515 3.04564 37.4688 0 29.6231 0C13.429 0 0.25138 13.1318 0.25138 29.2698C0.25138 34.4249 1.60089 39.4615 4.16761 43.9047L0 59.0669L15.5723 54.9929C19.859 57.3266 24.6882 58.5527 29.6099 58.5527H29.6231C45.8041 58.5527 59.2727 45.4209 59.2727 29.283C59.2727 21.4645 55.9387 14.1207 50.3951 8.58316ZM29.6231 53.6217C25.2306 53.6217 20.9307 52.4483 17.1864 50.2333L16.3 49.7059L7.0651 52.1187L9.52598 43.14L8.94383 42.217C6.49619 38.3408 5.21283 33.8712 5.21283 29.2698C5.21283 15.8611 16.1677 4.94422 29.6364 4.94422C36.159 4.94422 42.2848 7.47566 46.889 12.0771C51.4932 16.6785 54.3245 22.783 54.3113 29.283C54.3113 42.7049 43.0786 53.6217 29.6231 53.6217ZM43.0124 35.4006C42.2848 35.0314 38.6728 33.2647 37.9981 33.0274C37.3233 32.7769 36.8338 32.6582 36.3442 33.3966C35.8547 34.1349 34.4523 35.7698 34.0157 36.2708C33.5923 36.7586 33.1557 36.8245 32.428 36.4554C28.1149 34.3063 25.2835 32.6187 22.439 27.7536C21.6848 26.4615 23.1931 26.5538 24.5955 23.7586C24.8337 23.2708 24.7146 22.8489 24.5294 22.4797C24.3442 22.1105 22.8756 18.5112 22.267 17.0477C21.6716 15.6237 21.063 15.8215 20.6132 15.7951C20.1898 15.7688 19.7002 15.7688 19.2107 15.7688C18.7212 15.7688 17.9274 15.9533 17.2526 16.6785C16.5778 17.4168 14.6859 19.1836 14.6859 22.783C14.6859 26.3824 17.3188 29.8631 17.676 30.3509C18.0464 30.8387 22.8491 38.2221 30.2185 41.3996C34.8757 43.4037 36.7015 43.5751 39.03 43.2323C40.4457 43.0213 43.3697 41.4655 43.9783 39.7515C44.5869 38.0375 44.5869 36.574 44.4016 36.2708C44.2296 35.9412 43.7401 35.7566 43.0124 35.4006Z" fill="#D8D8D8"/>
</svg>
